<svg width="32" height="26" viewBox="0 0 32 26" fill="none" xmlns="http://www.w3.org/2000/svg">
<g clip-path="url(#clip0_359_2456)">
<path fill-rule="evenodd" clip-rule="evenodd" d="M15.2677 4.13229C15.572 4.43657 15.5973 4.91416 15.3438 5.24733L15.2677 5.33437L8.71965 11.8823L25.3333 11.8833C25.8028 11.8833 26.1833 12.2639 26.1833 12.7333C26.1833 13.1667 25.8591 13.5243 25.4399 13.5767L25.3333 13.5833L8.71865 13.5823L15.2677 20.1323C15.5996 20.4642 15.5996 21.0024 15.2677 21.3344C14.9634 21.6387 14.4858 21.664 14.1527 21.4104L14.0656 21.3344L6.06561 13.3344L6.04546 13.3135C6.03311 13.3003 6.02118 13.2867 6.00969 13.2727L5.98954 13.2473L6.06561 13.3344C6.03226 13.301 6.00225 13.2656 5.9756 13.2285C5.96538 13.2141 5.95562 13.1996 5.9463 13.1848C5.93772 13.1712 5.92956 13.1574 5.92184 13.1434L5.92185 13.1433L5.91651 13.1335C5.91238 13.1258 5.90838 13.118 5.90451 13.1102C5.89154 13.084 5.87977 13.0567 5.86942 13.0288C5.86635 13.0205 5.86318 13.0115 5.86017 13.0024C5.85112 12.9754 5.84349 12.948 5.83723 12.9201C5.83424 12.9064 5.83159 12.893 5.82926 12.8796C5.82559 12.8589 5.82266 12.8373 5.82056 12.8154C5.81866 12.7951 5.81746 12.7755 5.81695 12.7558C5.81675 12.7488 5.81665 12.7411 5.81665 12.7333L5.81719 12.703C5.81783 12.6849 5.81904 12.6669 5.82083 12.6489L5.81665 12.7333C5.81665 12.6807 5.82143 12.6293 5.83057 12.5793C5.83305 12.5661 5.83583 12.5528 5.83893 12.5395C5.85665 12.4631 5.88485 12.3905 5.92185 12.3234L5.92184 12.3233C5.92241 12.3223 5.92299 12.3212 5.92357 12.3202C5.93108 12.3067 5.93852 12.2942 5.9463 12.2818C5.95629 12.266 5.9668 12.2504 5.9778 12.2352C5.98808 12.221 5.99868 12.2073 6.00974 12.1938C6.02118 12.18 6.03311 12.1663 6.04546 12.1531C6.05192 12.1462 6.05869 12.1392 6.06561 12.1323L14.0656 4.13229C14.3976 3.80034 14.9357 3.80034 15.2677 4.13229Z" fill="#353945"/>
</g>
<defs>
<clipPath id="clip0_359_2456">
<rect width="32" height="24.5333" fill="white" transform="translate(0 0.733337)"/>
</clipPath>
</defs>
</svg>
