<svg width="32" height="32" viewBox="0 0 32 32" fill="none" xmlns="http://www.w3.org/2000/svg">
<circle cx="16" cy="16" r="16" fill="#FBD2D3"/>
<path d="M21.1573 18.2009L21.1414 18.1821C20.581 17.5184 19.871 17.008 19.0744 16.6792C18.2566 17.4443 17.1585 17.9133 15.9529 17.9133C14.7665 17.9133 13.6844 17.459 12.8709 16.7154C12.1088 17.0448 11.4293 17.5421 10.8889 18.182L10.8729 18.201C10.0034 19.2307 9.5625 20.4 9.5625 21.6766V22.0939H22.4678V21.6766C22.4678 20.4 22.0269 19.2307 21.1573 18.2009Z" fill="#FA2852"/>
<path d="M11.5111 14.5827H11.5516H12.4268H12.427C12.3331 14.3169 12.2684 14.0375 12.2369 13.7482H12.2371H15.4137V14.5827H12.427C12.489 14.7582 12.5641 14.9276 12.6505 15.09C12.9242 15.6056 13.3208 16.0547 13.7969 16.3921C14.4066 16.8242 15.1504 17.0787 15.9528 17.0787C16.7639 17.0787 17.5153 16.8189 18.1286 16.3784C18.5155 16.0996 18.8499 15.748 19.1062 15.3456C19.2577 15.1081 19.3833 14.8525 19.4786 14.5827H19.4787H20.3541H20.429C20.9615 14.5827 21.3947 14.1496 21.3947 13.6171V13.3309C21.3947 10.3397 18.9612 7.90625 15.97 7.90625C12.9789 7.90625 10.5454 10.3397 10.5454 13.3309V13.617C10.5454 14.1495 10.9787 14.5827 11.5111 14.5827ZM15.9701 8.74081C18.0672 8.74081 19.8401 10.1546 20.3863 12.079H19.4718C18.9532 10.6365 17.5717 9.6021 15.9529 9.6021C14.334 9.6021 12.9524 10.6365 12.4338 12.079H11.5538C12.1001 10.1546 13.8729 8.74081 15.9701 8.74081Z" fill="#FA2852"/>
</svg>
