<svg width="12" height="12" viewBox="0 0 12 12" fill="none" xmlns="http://www.w3.org/2000/svg">
<g clip-path="url(#clip0_359_2310)">
<path d="M6.53026 0.219656L9.18756 2.87695C9.33402 3.02341 9.40724 3.21534 9.40724 3.4073C9.40724 3.59925 9.33402 3.79118 9.18756 3.93764C8.89466 4.23052 8.41979 4.23052 8.1269 3.93764L6.74994 2.56066L6.74994 11.25C6.74994 11.6642 6.41415 12 5.99994 12C5.58573 12 5.24994 11.6642 5.24994 11.25L5.24994 2.56066L3.87299 3.93764C3.58009 4.23052 3.10522 4.23052 2.81232 3.93764C2.51943 3.64472 2.51943 3.16988 2.81232 2.87695L5.46962 0.219656C5.7625 -0.0732185 6.23739 -0.0732185 6.53026 0.219656Z" fill="#777E91"/>
</g>
<defs>
<clipPath id="clip0_359_2310">
<rect width="12" height="12" fill="white" transform="translate(0 12) rotate(-90)"/>
</clipPath>
</defs>
</svg>
