<svg width="22" height="18" viewBox="0 0 22 18" fill="none" xmlns="http://www.w3.org/2000/svg">
<path fill-rule="evenodd" clip-rule="evenodd" d="M10.2677 0.398862C10.572 0.703145 10.5973 1.18073 10.3438 1.5139L10.2677 1.60094L3.71967 8.1489L20.3333 8.1499C20.8028 8.1499 21.1833 8.53046 21.1833 8.9999C21.1833 9.43323 20.8591 9.79083 20.44 9.84328L20.3333 9.8499L3.71867 9.8489L10.2677 16.3989C10.5997 16.7308 10.5997 17.269 10.2677 17.6009C9.96342 17.9052 9.48584 17.9306 9.15267 17.677L9.06563 17.6009L1.06562 9.60094L1.04548 9.5801C1.03313 9.56689 1.0212 9.55328 1.0097 9.53929L0.989554 9.5139L1.06562 9.60094C1.03227 9.56759 1.00227 9.53215 0.975617 9.49505C0.965392 9.48069 0.955631 9.46616 0.946314 9.45133C0.937732 9.43781 0.929579 9.42396 0.921851 9.40993L0.921869 9.40984L0.916526 9.40012C0.912396 9.39239 0.908395 9.3846 0.904522 9.37677C0.891558 9.35053 0.879787 9.32331 0.86944 9.29541C0.86636 9.28703 0.863197 9.27804 0.860189 9.269C0.851135 9.24196 0.843504 9.21457 0.837246 9.18665C0.834255 9.17294 0.831605 9.15959 0.829277 9.1462C0.825602 9.12552 0.822672 9.10385 0.820573 9.08194C0.818675 9.06172 0.817478 9.04206 0.816961 9.02238C0.81677 9.0154 0.816666 9.00766 0.816666 8.9999L0.817205 8.96954C0.817845 8.9515 0.819058 8.93347 0.820842 8.91549L0.816666 8.9999C0.816666 8.94731 0.821441 8.89584 0.830583 8.84589C0.833069 8.8327 0.835845 8.81935 0.838943 8.80606C0.856665 8.72967 0.884867 8.65705 0.921869 8.58997L0.921851 8.58987C0.922427 8.58883 0.923005 8.58778 0.923586 8.58674C0.9311 8.57327 0.938531 8.56073 0.946312 8.54834C0.95631 8.53256 0.966818 8.517 0.977816 8.50182C0.988099 8.48753 0.998691 8.47383 1.00976 8.46039C1.0212 8.44653 1.03313 8.43292 1.04548 8.4197C1.05194 8.41278 1.05871 8.40578 1.06562 8.39886L9.06563 0.398862C9.39757 0.0669159 9.93576 0.0669159 10.2677 0.398862Z" fill="#353945"/>
</svg>
