<svg width="28" height="28" viewBox="0 0 28 28" fill="none" xmlns="http://www.w3.org/2000/svg">
<path d="M23.4324 4.56824C18.23 -0.6331 9.76933 -0.6331 4.5669 4.56824C-0.633301 9.76959 -0.633301 18.2324 4.5669 23.4338C7.16812 26.0339 10.5841 27.3333 14.0002 27.3333C17.4163 27.3333 20.8312 26.0338 23.4324 23.4338C28.6337 18.2325 28.6337 9.76959 23.4324 4.56824ZM19.5017 17.9312C19.9363 18.3658 19.9363 19.0684 19.5017 19.503C19.2849 19.7198 19.0003 19.8287 18.7157 19.8287C18.4312 19.8287 18.1465 19.7198 17.9298 19.503L14.0002 15.5723L10.0717 19.5019C9.8538 19.7186 9.56919 19.8276 9.28572 19.8276C9.00116 19.8276 8.71655 19.7186 8.49978 19.5019C8.06515 19.0672 8.06515 18.3636 8.49978 17.93L12.4283 14.0004L8.49869 10.0708C8.06406 9.63619 8.06406 8.93253 8.49869 8.49899C8.93222 8.06436 9.63589 8.06436 10.0705 8.49899L14.0001 12.4286L17.9297 8.49899C18.3644 8.06436 19.0669 8.06436 19.5016 8.49899C19.9362 8.93253 19.9362 9.63619 19.5016 10.0708L15.5719 14.0004L19.5017 17.9312Z" fill="#D1D7E7"/>
</svg>
