<svg width="16" height="17" viewBox="0 0 16 17" fill="none" xmlns="http://www.w3.org/2000/svg">
<path d="M11.0892 14.1119H2.31319C1.96414 14.1115 1.6295 13.9727 1.38268 13.7259C1.13587 13.4791 0.997035 13.1444 0.996643 12.7954V2.09121C0.997035 1.74216 1.13587 1.40752 1.38268 1.1607C1.6295 0.913884 1.96414 0.77505 2.31319 0.774658H11.0892C11.4382 0.77505 11.7729 0.913884 12.0197 1.1607C12.2665 1.40752 12.4054 1.74216 12.4057 2.09121V12.7954C12.4054 13.1444 12.2665 13.4791 12.0197 13.7259C11.7729 13.9727 11.4382 14.1115 11.0892 14.1119Z" fill="#353945"/>
<path d="M14.6745 3.43738H13.6127C13.5814 3.43733 13.5501 3.4403 13.5194 3.44626V13.9076C13.519 14.2569 13.38 14.5918 13.1328 14.8386C12.8857 15.0855 12.5507 15.2241 12.2014 15.2241H4.63677C4.60043 15.2968 4.58166 15.3769 4.58197 15.4581C4.58237 15.8072 4.7212 16.1418 4.96802 16.3886C5.21483 16.6354 5.54947 16.7743 5.89852 16.7747H14.6745C15.0237 16.7747 15.3586 16.636 15.6055 16.3891C15.8524 16.1422 15.9911 15.8073 15.9911 15.4581V4.75393C15.9911 4.40476 15.8524 4.06989 15.6055 3.82299C15.3586 3.57609 15.0237 3.43738 14.6745 3.43738Z" fill="#353945"/>
</svg>
