<svg width="24" height="24" viewBox="0 0 24 24" fill="none" xmlns="http://www.w3.org/2000/svg">
<circle cx="12" cy="12" r="11.5" stroke="#D1D7E7"/>
<path fill-rule="evenodd" clip-rule="evenodd" d="M7.97554 7.97554C8.20986 7.74123 8.58975 7.74123 8.82407 7.97554L11.9998 11.1513L15.1755 7.97554C15.4099 7.74123 15.7898 7.74123 16.0241 7.97554C16.2584 8.20986 16.2584 8.58975 16.0241 8.82407L12.8483 11.9998L16.0241 15.1755C16.2584 15.4099 16.2584 15.7898 16.0241 16.0241C15.7898 16.2584 15.4099 16.2584 15.1755 16.0241L11.9998 12.8483L8.82407 16.0241C8.58975 16.2584 8.20986 16.2584 7.97554 16.0241C7.74123 15.7898 7.74123 15.4099 7.97554 15.1755L11.1513 11.9998L7.97554 8.82407C7.74123 8.58975 7.74123 8.20986 7.97554 7.97554Z" fill="#353945"/>
</svg>
