<svg width="20" height="20" viewBox="0 0 20 20" fill="none" xmlns="http://www.w3.org/2000/svg">
<path d="M17.0742 2.92576C13.1724 -0.975252 6.82694 -0.975252 2.92511 2.92576C-0.975037 6.82676 -0.975037 13.1739 2.92511 17.0749C4.87603 19.025 7.43805 19.9996 10.0001 19.9996C12.5622 19.9996 15.1233 19.0249 17.0742 17.0749C20.9753 13.1739 20.9753 6.82676 17.0742 2.92576ZM14.1262 12.948C14.4522 13.2739 14.4522 13.8009 14.1262 14.1268C13.9636 14.2894 13.7502 14.3711 13.5367 14.3711C13.3233 14.3711 13.1098 14.2894 12.9473 14.1268L10.0001 11.1788L7.05369 14.126C6.89029 14.2885 6.67683 14.3703 6.46423 14.3703C6.25081 14.3703 6.03735 14.2885 5.87478 14.126C5.5488 13.8 5.5488 13.2722 5.87478 12.9471L8.82116 9.99989L5.87395 7.05269C5.54798 6.72672 5.54798 6.19897 5.87395 5.87382C6.19911 5.54784 6.72685 5.54784 7.05283 5.87382L10 8.82102L12.9472 5.87382C13.2732 5.54784 13.8001 5.54784 14.1261 5.87382C14.4521 6.19897 14.4521 6.72672 14.1261 7.05269L11.1789 9.99989L14.1262 12.948Z" fill="#353945"/>
</svg>
