<svg width="28" height="20" viewBox="0 0 28 20" fill="none" xmlns="http://www.w3.org/2000/svg">
<path d="M20.7493 19.5526L27.18 10.5826C27.43 10.2346 27.43 9.76526 27.18 9.41726L20.7493 0.447286C20.428 -0.00138179 19.8027 -0.10407 19.354 0.217265C18.9053 0.538598 18.802 1.16394 19.124 1.61261L25.1367 9.99994L19.124 18.3873C18.802 18.8359 18.9053 19.4613 19.354 19.7826C19.8027 20.1039 20.428 20.0013 20.7493 19.5526ZM14.9107 19.5526L21.3413 10.5826C21.5906 10.2346 21.5906 9.76526 21.3413 9.41726L14.9107 0.447286C14.5887 -0.00138153 13.964 -0.104069 13.5153 0.217266C13.0667 0.538598 12.9633 1.16394 13.2853 1.61261L19.298 9.99994L13.2853 18.3873C12.9633 18.8359 13.0667 19.4613 13.5153 19.7826C13.964 20.1039 14.5887 20.0013 14.9107 19.5526ZM9.07199 0.447286C8.88532 0.187286 8.586 0.0319287 8.266 0.0299279C7.946 0.0279271 7.64466 0.1786 7.45466 0.435934L0.828663 9.40594C0.567996 9.75928 0.567996 10.2406 0.828663 10.5939L7.45466 19.5639C7.64466 19.8213 7.946 19.972 8.266 19.97C8.586 19.968 8.88532 19.8126 9.07199 19.5526L15.5027 10.5826C15.752 10.2346 15.752 9.76526 15.5027 9.41726L9.07199 0.447286Z" fill="#353945"/>
</svg>
