<svg width="16" height="16" viewBox="0 0 16 16" fill="none" xmlns="http://www.w3.org/2000/svg">
<path d="M16 11.4158C16 11.6811 15.8946 11.9354 15.7071 12.123C15.5196 12.3105 15.2652 12.4158 15 12.4158H3.41422L5.12228 14.1239C5.30982 14.3114 5.41518 14.5658 5.41519 14.831C5.41519 15.0962 5.30983 15.3506 5.1223 15.5381C4.93476 15.7257 4.6804 15.831 4.41518 15.831C4.14996 15.8311 3.8956 15.7257 3.70806 15.5382L0.292906 12.123C0.200047 12.0301 0.126387 11.9199 0.0761316 11.7985C0.0258764 11.6772 1.04163e-05 11.5472 1.04163e-05 11.4159C1.04163e-05 11.2845 0.0258764 11.1545 0.0761316 11.0332C0.126387 10.9119 0.200047 10.8016 0.292906 10.7088L3.70806 7.2935C3.80092 7.20064 3.91117 7.12698 4.03249 7.07673C4.15382 7.02648 4.28386 7.00061 4.41518 7.00061C4.54651 7.00061 4.67654 7.02648 4.79787 7.07674C4.9192 7.127 5.02944 7.20066 5.1223 7.29352C5.21516 7.38638 5.28882 7.49662 5.33907 7.61795C5.38932 7.73928 5.41519 7.86932 5.41519 8.00064C5.41518 8.13196 5.38932 8.262 5.33906 8.38333C5.2888 8.50465 5.21514 8.61489 5.12228 8.70775L3.41422 10.4158H15C15.1313 10.4158 15.2614 10.4417 15.3827 10.4919C15.504 10.5422 15.6143 10.6158 15.7071 10.7087C15.8 10.8016 15.8736 10.9118 15.9239 11.0331C15.9741 11.1545 16 11.2845 16 11.4158ZM12.2919 0.461347C12.1044 0.27381 11.85 0.168454 11.5848 0.168457C11.3196 0.16846 11.0652 0.273821 10.8777 0.461362C10.6902 0.648904 10.5848 0.903262 10.5848 1.16848C10.5848 1.4337 10.6902 1.68806 10.8777 1.8756L12.5858 3.58366H1C0.734784 3.58366 0.48043 3.68902 0.292893 3.87655C0.105357 4.06409 0 4.31844 0 4.58366C0 4.84888 0.105357 5.10323 0.292893 5.29077C0.48043 5.4783 0.734784 5.58366 1 5.58366H12.5858L10.8777 7.29169C10.6902 7.47923 10.5848 7.73359 10.5848 7.99881C10.5848 8.26404 10.6901 8.51841 10.8777 8.70596C11.0652 8.89351 11.3196 8.99887 11.5848 8.99888C11.85 8.99889 12.1044 8.89354 12.2919 8.706L15.7071 5.29078C15.8 5.19793 15.8736 5.08768 15.9239 4.96635C15.9741 4.84503 16 4.71499 16 4.58366C16 4.45233 15.9741 4.32229 15.9239 4.20096C15.8736 4.07964 15.8 3.96939 15.7071 3.87653L12.2919 0.461347Z" fill="#353945"/>
</svg>
