<svg width="16" height="16" viewBox="0 0 16 16" fill="none" xmlns="http://www.w3.org/2000/svg">
<path fill-rule="evenodd" clip-rule="evenodd" d="M8.00004 13.3333C10.9456 13.3333 13.3334 10.9455 13.3334 8C13.3334 5.05448 10.9456 2.66667 8.00004 2.66667C5.05452 2.66667 2.66671 5.05448 2.66671 8C2.66671 10.9455 5.05452 13.3333 8.00004 13.3333ZM8.00004 14.6667C11.6819 14.6667 14.6667 11.6819 14.6667 8C14.6667 4.3181 11.6819 1.33334 8.00004 1.33334C4.31814 1.33334 1.33337 4.3181 1.33337 8C1.33337 11.6819 4.31814 14.6667 8.00004 14.6667Z" fill="#353945"/>
<path d="M8.00004 6.66666C8.00004 6.29848 8.29851 6 8.66671 6H9.33337C9.70157 6 10 5.70152 10 5.33333C10 4.96514 9.70157 4.66666 9.33337 4.66666H8.66671C7.56211 4.66666 6.66671 5.5621 6.66671 6.66666V8H6.00004C5.63185 8 5.33337 8.29846 5.33337 8.66666C5.33337 9.03486 5.63185 9.33333 6.00004 9.33333H6.66671V13.3333C6.66671 13.7015 6.96517 14 7.33337 14C7.70157 14 8.00004 13.7015 8.00004 13.3333V9.33333H9.33337C9.70157 9.33333 10 9.03486 10 8.66666C10 8.29846 9.70157 8 9.33337 8H8.00004V6.66666Z" fill="#353945"/>
</svg>
