<svg width="16" height="16" viewBox="0 0 16 16" fill="none" xmlns="http://www.w3.org/2000/svg">
<path fill-rule="evenodd" clip-rule="evenodd" d="M10.6667 2.66667H5.33337C3.86061 2.66667 2.66671 3.86058 2.66671 5.33334V10.6667C2.66671 12.1394 3.86061 13.3333 5.33337 13.3333H10.6667C12.1394 13.3333 13.3334 12.1394 13.3334 10.6667V5.33334C13.3334 3.86058 12.1394 2.66667 10.6667 2.66667ZM5.33337 1.33334C3.12423 1.33334 1.33337 3.1242 1.33337 5.33334V10.6667C1.33337 12.8758 3.12423 14.6667 5.33337 14.6667H10.6667C12.8758 14.6667 14.6667 12.8758 14.6667 10.6667V5.33334C14.6667 3.1242 12.8758 1.33334 10.6667 1.33334H5.33337Z" fill="#353945"/>
<path d="M11.3333 5.33333C11.7015 5.33333 12 5.03485 12 4.66667C12 4.29848 11.7015 4 11.3333 4C10.9651 4 10.6666 4.29848 10.6666 4.66667C10.6666 5.03485 10.9651 5.33333 11.3333 5.33333Z" fill="#353945"/>
<path fill-rule="evenodd" clip-rule="evenodd" d="M11.3333 8C11.3333 9.84093 9.84089 11.3333 7.99996 11.3333C6.15901 11.3333 4.66663 9.84093 4.66663 8C4.66663 6.15905 6.15901 4.66666 7.99996 4.66666C9.84089 4.66666 11.3333 6.15905 11.3333 8ZM9.99996 8C9.99996 9.1046 9.10456 10 7.99996 10C6.89536 10 5.99996 9.1046 5.99996 8C5.99996 6.8954 6.89536 6 7.99996 6C9.10456 6 9.99996 6.8954 9.99996 8Z" fill="#353945"/>
</svg>
