<svg viewBox="0 0 48 48" xmlns="http://www.w3.org/2000/svg"
    xmlns:xlink="http://www.w3.org/1999/xlink">
    <defs>


        <path fill="#000000" id="i-437"
            d="M11,6c-2.757,0-5,2.243-5,5s2.243,5,5,5s5-2.243,5-5S13.757,6,11,6z M11,14c-1.654,0-3-1.346-3-3s1.346-3,3-3s3,1.346,3,3 S12.654,14,11,14z M26.76,19.83C29.19,14.52,28.09,8.279,23.92,4.1C21.27,1.46,17.75,0,14.01,0S6.75,1.46,4.1,4.1 C1.46,6.75,0,10.27,0,14.01s1.46,7.26,4.1,9.91c2.65,2.64,6.17,4.1,9.91,4.1c2,0,4-0.43,5.82-1.26l3.859,3.86l5.37,1.899 l1.061,4.801l4.72,1.04l1.08,4.859l3.96,0.09L42.4,48H48v-6.41L26.76,19.83z M46,46h-2.4l-2.51-4.66l-3.56-0.08l-1.011-4.58 l-4.72-1.04L30.77,31l-5.99-2.12l-4.559-4.56l-0.65,0.34c-1.711,0.89-3.631,1.359-5.561,1.359c-3.21,0-6.22-1.25-8.49-3.52 C3.25,20.23,2,17.221,2,14.01c0-3.21,1.25-6.22,3.52-8.49C7.79,3.25,10.8,2,14.01,2c3.211,0,6.221,1.25,8.49,3.52 c3.73,3.73,4.6,9.371,2.16,14.051l-0.33,0.64L46,42.41V46z" />
    </defs>

    <use x="0" y="0" xlink:href="#i-437" />

</svg>