<svg width="143" height="145" viewBox="0 0 143 145" fill="none" xmlns="http://www.w3.org/2000/svg">
<path d="M63.57 132.127C63.57 127.617 60.91 123.447 56.72 121.787C38.62 114.607 27.68 96.7468 27.68 72.2668C27.68 47.2768 38.41 29.5368 56.63 22.4768C60.87 20.8368 63.57 16.6468 63.57 12.0968V11.3068C63.57 3.7468 56.24 -1.75321 49.03 0.51679C18.91 9.99679 0 36.3768 0 72.0968C0 108.267 18.56 134.327 49.02 143.867C56.24 146.127 63.57 140.637 63.57 133.077V132.127Z" fill="#EC1C24"/>
<path d="M89.3 12.4668C89.3 17.0168 92.09 20.9768 96.23 22.8568C105.19 26.9468 109.81 33.7768 113.12 40.5968C115.4 44.7468 119.58 47.0268 124.87 47.0268C127.09 47.0268 129.07 46.7368 130.8 46.1768C135.26 44.9068 139.75 41.1768 139.75 35.7168C139.75 33.9368 139.35 32.2268 138.57 30.6468C133.34 19.6768 123.3 7.24679 104.11 0.876789C96.82 -1.54321 89.29 3.8968 89.29 11.5768V12.4668H89.3Z" fill="#EC1C24"/>
<path d="M132.34 93.3268C124.33 91.3668 117.46 94.1568 114.78 100.457C110.97 110.537 104.6 117.577 95.76 121.527C91.79 123.307 89.3 127.337 89.3 131.687V132.867C89.3 140.497 96.79 146.087 104 143.597C126.43 135.827 136.82 119.207 141.39 108.097C141.98 106.567 142.25 105.247 142.25 103.817C142.25 98.2468 137.2 94.3068 132.34 93.3268Z" fill="#EC1C24"/>
</svg>
