<svg width="32" height="32" viewBox="0 0 32 32" fill="none" xmlns="http://www.w3.org/2000/svg">
<circle cx="16" cy="16" r="16" fill="#DAEBD1"/>
<path d="M20.3935 13.7641H19.8264H19.8262V11.7466C19.8262 9.61182 18.1068 7.875 15.9933 7.875C13.8799 7.875 12.1604 9.61182 12.1604 11.7466V13.7642H11.5932C11.1448 13.7642 10.7812 14.1313 10.7812 14.5842V15.0831V20.7748V21.2736C10.7812 21.7266 11.1448 22.0938 11.5932 22.0938H15.9933H20.3935C20.8418 22.0938 21.2053 21.7266 21.2053 21.2736V20.7748V15.0831V14.5842C21.2053 14.1313 20.8418 13.7641 20.3935 13.7641ZM16.8575 19.6386H15.1291L15.4385 18.1497C15.1492 17.9638 14.9559 17.6391 14.9559 17.2671C14.9559 16.6884 15.4204 16.2193 15.9933 16.2193C16.5662 16.2193 17.0306 16.6884 17.0306 17.2671C17.0306 17.6391 16.8374 17.9638 16.5482 18.1497L16.8575 19.6386ZM18.4586 13.7641H15.9933H13.5281H13.528V11.7466C13.528 10.3734 14.6339 9.2564 15.9933 9.2564C17.3528 9.2564 18.4586 10.3734 18.4586 11.7466V13.7641Z" fill="#83BD67"/>
</svg>
