<svg width="24" height="24" viewBox="0 0 24 24" fill="none" xmlns="http://www.w3.org/2000/svg">
<path d="M9.31144 0.155154C6.45278 0.51782 3.92478 1.58449 2.36744 3.08849C0.340778 5.04049 0.586111 7.54715 2.97544 9.34982C4.37278 10.3952 5.93011 11.0778 7.97811 11.5152C9.20477 11.7818 12.1914 11.9312 13.7381 11.8032C17.1621 11.5152 20.5648 9.97915 21.8981 8.12315C22.4848 7.30182 22.6874 6.64049 22.6234 5.70182C22.5594 4.67782 22.1968 3.99515 21.2154 3.03515C18.8581 0.720488 14.0581 -0.44218 9.31144 0.155154Z" fill="#FA2852"/>
<path d="M1.21545 10.2672C1.01278 10.5125 1.32211 11.3338 1.89811 12.0698C3.07145 13.5525 5.32211 14.7258 8.28745 15.3658C9.75944 15.6858 13.5141 15.7178 15.0608 15.4192C18.6874 14.7152 21.3008 13.2005 22.2714 11.2485C22.5488 10.6938 22.6234 10.1178 22.4208 10.1178C22.3568 10.1178 21.9728 10.3525 21.5781 10.6512C20.0741 11.7712 18.0794 12.6138 15.7648 13.1045C14.3994 13.4032 10.8048 13.5205 9.23678 13.3178C6.32478 12.9552 3.87145 11.9845 1.56745 10.2778C1.36478 10.1285 1.32211 10.1285 1.21545 10.2672Z" fill="#FA2852"/>
<path d="M1.09811 14.2992C1.09811 14.7792 1.62078 15.8245 2.14345 16.4218C3.37011 17.7978 5.81278 18.9498 8.58611 19.4618C9.83411 19.6965 12.6501 19.7712 14.0048 19.6218C16.3301 19.3445 18.6128 18.5765 20.1701 17.5418C21.4928 16.6672 22.4848 15.3552 22.5594 14.3845C22.6021 13.8405 22.3781 13.8725 21.4714 14.5552C19.8714 15.7498 17.5781 16.6352 14.9648 17.0618C13.1621 17.3605 9.75945 17.3072 7.99945 16.9552C5.70611 16.4965 3.81811 15.7178 2.22878 14.5872C1.75945 14.2352 1.30078 13.9578 1.23678 13.9578C1.15145 13.9578 1.09811 14.0965 1.09811 14.2992Z" fill="#FA2852"/>
<path d="M1.09811 18.3525C1.09811 19.2912 2.21811 20.7738 3.60478 21.6912C5.01278 22.6085 7.34878 23.3872 9.55678 23.6645C11.0501 23.8565 13.9621 23.7498 15.4234 23.4618C18.7728 22.7898 21.3221 21.2538 22.2714 19.3552C22.5594 18.7792 22.6341 18.0112 22.3994 18.0112C22.3141 18.0112 21.9728 18.2245 21.6421 18.4912C19.3061 20.2938 15.7434 21.3392 11.8714 21.3285C7.81811 21.3178 4.33011 20.3045 1.97278 18.4378C1.29011 17.9045 1.09811 17.8938 1.09811 18.3525Z" fill="#FA2852"/>
</svg>
