<svg width="22" height="22" viewBox="0 0 22 22" fill="none" xmlns="http://www.w3.org/2000/svg">
<path d="M17 0.21875H5C3.73224 0.219743 2.51669 0.7238 1.62024 1.62024C0.7238 2.51669 0.219743 3.73224 0.21875 5V17C0.219743 18.2678 0.7238 19.4833 1.62024 20.3798C2.51669 21.2762 3.73224 21.7803 5 21.7812H17C18.2678 21.7803 19.4833 21.2762 20.3798 20.3798C21.2762 19.4833 21.7803 18.2678 21.7812 17V5C21.7803 3.73224 21.2762 2.51669 20.3798 1.62024C19.4833 0.7238 18.2678 0.219743 17 0.21875ZM9.30125 3.21875H12.6987C12.7733 3.21875 12.8449 3.24838 12.8976 3.30113C12.9504 3.35387 12.98 3.42541 12.98 3.5C12.98 3.57459 12.9504 3.64613 12.8976 3.69887C12.8449 3.75162 12.7733 3.78125 12.6987 3.78125H9.30125C9.22666 3.78125 9.15512 3.75162 9.10238 3.69887C9.04963 3.64613 9.02 3.57459 9.02 3.5C9.02 3.42541 9.04963 3.35387 9.10238 3.30113C9.15512 3.24838 9.22666 3.21875 9.30125 3.21875ZM6.9275 5.5925H15.0725C15.1471 5.5925 15.2186 5.62213 15.2714 5.67488C15.3241 5.72762 15.3538 5.79916 15.3538 5.87375C15.3538 5.94834 15.3241 6.01988 15.2714 6.07262C15.2186 6.12537 15.1471 6.155 15.0725 6.155H6.9275C6.85291 6.155 6.78137 6.12537 6.72863 6.07262C6.67588 6.01988 6.64625 5.94834 6.64625 5.87375C6.64625 5.79916 6.67588 5.72762 6.72863 5.67488C6.78137 5.62213 6.85291 5.5925 6.9275 5.5925ZM5.01875 8.09H17C17.0746 8.09 17.1461 8.11963 17.1989 8.17238C17.2516 8.22512 17.2812 8.29666 17.2812 8.37125C17.2812 8.44584 17.2516 8.51738 17.1989 8.57012C17.1461 8.62287 17.0746 8.6525 17 8.6525H5.01875C4.94416 8.6525 4.87262 8.62287 4.81988 8.57012C4.76713 8.51738 4.7375 8.44584 4.7375 8.37125C4.7375 8.29666 4.76713 8.22512 4.81988 8.17238C4.87262 8.11963 4.94416 8.09 5.01875 8.09ZM18.7512 17.09C18.7503 17.5363 18.5725 17.9639 18.257 18.2795C17.9414 18.595 17.5138 18.7728 17.0675 18.7738H4.9325C4.48625 18.7728 4.05855 18.595 3.743 18.2795C3.42745 17.9639 3.24974 17.5363 3.24875 17.09V12.215C3.24974 11.7687 3.42745 11.3411 3.743 11.0255C4.05855 10.71 4.48625 10.5322 4.9325 10.5312H17.0675C17.5138 10.5322 17.9414 10.71 18.257 11.0255C18.5725 11.3411 18.7503 11.7687 18.7512 12.215V17.09Z" fill="#353945"/>
</svg>
