<svg width="22" height="22" viewBox="0 0 22 22" fill="none" xmlns="http://www.w3.org/2000/svg">
<path d="M17 0H5C3.73224 0.000993155 2.51669 0.50505 1.62024 1.40149C0.7238 2.29794 0.219743 3.51349 0.21875 4.78125V16.7812C0.219743 18.049 0.7238 19.2646 1.62024 20.161C2.51669 21.0575 3.73224 21.5615 5 21.5625H17C18.2678 21.5615 19.4833 21.0575 20.3798 20.161C21.2762 19.2646 21.7803 18.049 21.7812 16.7812V4.78125C21.7803 3.51349 21.2762 2.29794 20.3798 1.40149C19.4833 0.50505 18.2678 0.000993155 17 0ZM9.30125 3H12.6987C12.7733 3 12.8449 3.02963 12.8976 3.08238C12.9504 3.13512 12.98 3.20666 12.98 3.28125C12.98 3.35584 12.9504 3.42738 12.8976 3.48012C12.8449 3.53287 12.7733 3.5625 12.6987 3.5625H9.30125C9.22666 3.5625 9.15512 3.53287 9.10238 3.48012C9.04963 3.42738 9.02 3.35584 9.02 3.28125C9.02 3.20666 9.04963 3.13512 9.10238 3.08238C9.15512 3.02963 9.22666 3 9.30125 3ZM6.9275 5.37375H15.0725C15.1471 5.37375 15.2186 5.40338 15.2714 5.45613C15.3241 5.50887 15.3538 5.58041 15.3538 5.655C15.3538 5.72959 15.3241 5.80113 15.2714 5.85387C15.2186 5.90662 15.1471 5.93625 15.0725 5.93625H6.9275C6.85291 5.93625 6.78137 5.90662 6.72863 5.85387C6.67588 5.80113 6.64625 5.72959 6.64625 5.655C6.64625 5.58041 6.67588 5.50887 6.72863 5.45613C6.78137 5.40338 6.85291 5.37375 6.9275 5.37375ZM5.01875 7.87125H17C17.0746 7.87125 17.1461 7.90088 17.1989 7.95363C17.2516 8.00637 17.2812 8.07791 17.2812 8.1525C17.2812 8.22709 17.2516 8.29863 17.1989 8.35137C17.1461 8.40412 17.0746 8.43375 17 8.43375H5.01875C4.94416 8.43375 4.87262 8.40412 4.81988 8.35137C4.76713 8.29863 4.7375 8.22709 4.7375 8.1525C4.7375 8.07791 4.76713 8.00637 4.81988 7.95363C4.87262 7.90088 4.94416 7.87125 5.01875 7.87125ZM18.7512 16.8713C18.7503 17.3175 18.5725 17.7452 18.257 18.0607C17.9414 18.3763 17.5138 18.554 17.0675 18.555H4.9325C4.48625 18.554 4.05855 18.3763 3.743 18.0607C3.42745 17.7452 3.24974 17.3175 3.24875 16.8713V11.9963C3.24974 11.55 3.42745 11.1223 3.743 10.8068C4.05855 10.4912 4.48625 10.3135 4.9325 10.3125H17.0675C17.5138 10.3135 17.9414 10.4912 18.257 10.8068C18.5725 11.1223 18.7503 11.55 18.7512 11.9963V16.8713Z" fill="#FA2852"/>
</svg>
