<svg width="30" height="30" viewBox="0 0 30 30" fill="none" xmlns="http://www.w3.org/2000/svg">
<circle cx="15" cy="15" r="15" fill="#FFCD1A"/>
<path d="M22.368 18.2334L15.787 7.31949C15.6207 7.04366 15.3221 6.875 15 6.875C14.6779 6.875 14.3792 7.04363 14.2129 7.31949L7.63201 18.2334C7.46086 18.5173 7.45579 18.8713 7.6188 19.1599C7.78181 19.4486 8.08758 19.6271 8.41904 19.6271H21.5809C21.9124 19.6271 22.2182 19.4485 22.3812 19.1599C22.5442 18.8713 22.5391 18.5173 22.368 18.2334ZM15.0049 10.6503C15.3829 10.6503 15.7027 10.8635 15.7027 11.2414C15.7027 12.3946 15.567 14.0518 15.567 15.205C15.567 15.5055 15.2375 15.6314 15.0049 15.6314C14.6948 15.6314 14.4331 15.5055 14.4331 15.205C14.4331 14.0518 14.2975 12.3946 14.2975 11.2414C14.2975 10.8635 14.6076 10.6503 15.0049 10.6503ZM15.0146 17.7926C14.5882 17.7926 14.2684 17.4437 14.2684 17.0464C14.2684 16.6394 14.5882 16.3002 15.0146 16.3002C15.4119 16.3002 15.7511 16.6394 15.7511 17.0464C15.7511 17.4437 15.4119 17.7926 15.0146 17.7926Z" fill="white"/>
</svg>
