<svg width="30" height="30" viewBox="0 0 30 30" fill="none" xmlns="http://www.w3.org/2000/svg">
<circle cx="15" cy="15" r="15" fill="white"/>
<path d="M15 0C12.0333 0 9.13319 0.879734 6.66645 2.52796C4.19972 4.17618 2.27713 6.51886 1.14181 9.25975C0.00649941 12.0006 -0.290551 15.0166 0.288227 17.9263C0.867006 20.8361 2.29562 23.5088 4.3934 25.6066C6.49119 27.7044 9.16393 29.133 12.0736 29.7118C14.9834 30.2905 17.9994 29.9935 20.7403 28.8582C23.4811 27.7229 25.8238 25.8003 27.472 23.3335C29.1203 20.8668 30 17.9667 30 15C30 11.0218 28.4196 7.20644 25.6066 4.3934C22.7936 1.58035 18.9782 0 15 0V0ZM23.27 10.8L12.57 21.5C12.5199 21.5471 12.4538 21.5733 12.385 21.5733C12.3162 21.5733 12.2501 21.5471 12.2 21.5L6.73001 16C6.54375 15.8126 6.43921 15.5592 6.43921 15.295C6.43921 15.0308 6.54375 14.7774 6.73001 14.59C6.91737 14.4037 7.17082 14.2992 7.43501 14.2992C7.69919 14.2992 7.95264 14.4037 8.14001 14.59L12.2 18.65C12.2501 18.6971 12.3162 18.7233 12.385 18.7233C12.4538 18.7233 12.5199 18.6971 12.57 18.65L21.86 9.36C22.0474 9.17375 22.3008 9.06921 22.565 9.06921C22.8292 9.06921 23.0826 9.17375 23.27 9.36C23.3668 9.45328 23.4438 9.56512 23.4963 9.68883C23.5489 9.81254 23.576 9.94558 23.576 10.08C23.576 10.2144 23.5489 10.3475 23.4963 10.4712C23.4438 10.5949 23.3668 10.7067 23.27 10.8V10.8Z" fill="#83BD67"/>
</svg>
