<svg width="25" height="24" viewBox="0 0 25 24" fill="none" xmlns="http://www.w3.org/2000/svg">
<path d="M24.0827 10.1729L22.964 9.97549C22.6698 9.92516 22.4414 9.70064 22.364 9.41032C22.1356 8.5587 21.7988 7.75353 21.3653 7.00644C21.2143 6.74709 21.2143 6.42579 21.3885 6.18192L22.0427 5.24903C22.2517 4.94708 22.2169 4.53676 21.9575 4.27741L20.4285 2.75225C20.1691 2.48903 19.7627 2.45418 19.4607 2.6671L18.5278 3.3213C18.2801 3.49162 17.9588 3.49547 17.6995 3.34452C16.9562 2.91097 16.1472 2.57418 15.2994 2.34581C15.0091 2.26838 14.7846 2.04001 14.7304 1.74581L14.5369 0.627094C14.4711 0.263221 14.1575 0 13.7898 0H11.6259C11.2581 0 10.9446 0.263221 10.8788 0.627094L10.6852 1.74581C10.631 2.04001 10.4065 2.26838 10.1162 2.34581C9.26846 2.57418 8.45944 2.91098 7.71232 3.34065C7.45297 3.49162 7.13555 3.48774 6.8878 3.31742L5.95491 2.66323C5.65298 2.45418 5.24651 2.48903 4.98716 2.74838L3.45813 4.27741C3.19878 4.53676 3.16393 4.94708 3.37298 5.24903L4.02717 6.18192C4.20137 6.42579 4.20137 6.74709 4.0504 7.00644C3.61685 7.75353 3.28008 8.5587 3.05168 9.41032C2.97426 9.70064 2.74588 9.92516 2.45168 9.97549L1.33297 10.1729C0.972971 10.2348 0.705872 10.5523 0.705872 10.92V13.0839C0.705872 13.4516 0.972971 13.7652 1.33297 13.8271L2.45168 14.0245C2.74588 14.0748 2.97426 14.2994 3.05168 14.5897C3.28008 15.4413 3.61685 16.2464 4.0504 16.9935C4.20137 17.2529 4.20137 17.5742 4.02717 17.8219L3.37298 18.7548C3.16393 19.0529 3.19878 19.4632 3.45813 19.7226L4.98716 21.2516C5.24651 21.511 5.65298 21.5458 5.95491 21.3368L6.8878 20.6826C7.13555 20.5123 7.45297 20.5084 7.71232 20.6594C8.45944 21.0929 9.26846 21.4258 10.1162 21.6542C10.4065 21.7316 10.631 21.96 10.6852 22.2542L10.8788 23.3729C10.9446 23.7368 11.2581 24 11.6259 24H13.7898C14.1575 24 14.4711 23.7368 14.5369 23.3729L14.7304 22.2542C14.7846 21.96 15.0091 21.7316 15.2994 21.6542C16.1472 21.4258 16.9562 21.089 17.6995 20.6555C17.9588 20.5045 18.2801 20.5084 18.5278 20.6826L19.4607 21.3329C19.7627 21.5458 20.1691 21.511 20.4285 21.2516L21.9575 19.7226C22.2169 19.4632 22.2517 19.0529 22.0427 18.7548L21.3885 17.8219C21.2143 17.5742 21.2143 17.2529 21.3653 16.9935C21.7988 16.2464 22.1356 15.4413 22.364 14.5897C22.4414 14.2993 22.6698 14.0748 22.964 14.0245L24.0827 13.8271C24.4427 13.7652 24.7098 13.4516 24.7098 13.0839V10.92C24.7098 10.5523 24.4427 10.2348 24.0827 10.1729ZM17.6878 15.7084C16.5614 14.1871 14.7459 13.2 12.702 13.2C10.6659 13.2 8.85039 14.1871 7.72395 15.7084C6.95751 14.6787 6.49686 13.3935 6.49686 12.0039C6.49686 8.57417 9.27622 5.79097 12.702 5.79097C16.1356 5.79097 18.9227 8.57418 18.9227 12.0039C18.9227 13.3935 18.462 14.6787 17.6878 15.7084Z" fill="#353945"/>
<path d="M12.7066 7.60416C11.414 7.60416 10.3641 8.65398 10.3641 9.94846C10.3641 11.2359 11.4081 12.291 12.7066 12.291C14.0043 12.291 15.0528 11.2365 15.0528 9.94846C15.0528 8.65398 14.0011 7.60416 12.7066 7.60416Z" fill="#353945"/>
</svg>
