<svg width="30" height="30" viewBox="0 0 30 30" fill="none" xmlns="http://www.w3.org/2000/svg">
<circle cx="15" cy="15" r="15" fill="#E1372D"/>
<g clip-path="url(#clip0_297_3601)">
<path d="M17.0625 15.0004L20.9295 11.1334C21.3568 10.7061 21.3568 10.0134 20.9295 9.58678L20.414 9.07125C19.9866 8.64385 19.2939 8.64385 18.8673 9.07125L15.0004 12.9382L11.1334 9.07045C10.7061 8.64318 10.0134 8.64318 9.58678 9.07045L9.07045 9.58598C8.64318 10.0134 8.64318 10.7061 9.07045 11.1327L12.9382 15.0004L9.07125 18.8673C8.64385 19.2947 8.64385 19.9874 9.07125 20.414L9.58678 20.9295C10.014 21.3568 10.7068 21.3568 11.1334 20.9295L15.0004 17.0625L18.8673 20.9295C19.2947 21.3568 19.9874 21.3568 20.414 20.9295L20.9295 20.414C21.3568 19.9866 21.3568 19.2939 20.9295 18.8673L17.0625 15.0004Z" fill="white"/>
</g>
<defs>
<clipPath id="clip0_297_3601">
<rect width="12.5" height="12.5" fill="white" transform="translate(8.75 8.75)"/>
</clipPath>
</defs>
</svg>
