<svg width="24" height="24" viewBox="0 0 24 24" fill="none" xmlns="http://www.w3.org/2000/svg">
<path d="M9.49333 0.277331C6.63466 0.639997 4.10666 1.70666 2.54933 3.21066C0.522663 5.16266 0.767996 7.66933 3.15733 9.472C4.55466 10.5173 6.11199 11.2 8.15999 11.6373C9.38666 11.904 12.3733 12.0533 13.92 11.9253C17.344 11.6373 20.7467 10.1013 22.08 8.24533C22.6667 7.424 22.8693 6.76266 22.8053 5.824C22.7413 4.8 22.3787 4.11733 21.3973 3.15733C19.04 0.842665 14.24 -0.320003 9.49333 0.277331Z" fill="#353945"/>
<path d="M1.39733 10.3893C1.19467 10.6347 1.504 11.456 2.08 12.192C3.25333 13.6747 5.504 14.848 8.46933 15.488C9.94133 15.808 13.696 15.84 15.2427 15.5413C18.8693 14.8373 21.4827 13.3227 22.4533 11.3707C22.7307 10.816 22.8053 10.24 22.6027 10.24C22.5387 10.24 22.1547 10.4747 21.76 10.7733C20.256 11.8933 18.2613 12.736 15.9467 13.2267C14.5813 13.5253 10.9867 13.6427 9.41866 13.44C6.50666 13.0773 4.05333 12.1067 1.74933 10.4C1.54667 10.2507 1.504 10.2507 1.39733 10.3893Z" fill="#353945"/>
<path d="M1.28 14.4213C1.28 14.9013 1.80267 15.9467 2.32533 16.544C3.552 17.92 5.99467 19.072 8.768 19.584C10.016 19.8187 12.832 19.8933 14.1867 19.744C16.512 19.4667 18.7947 18.6987 20.352 17.664C21.6747 16.7893 22.6667 15.4773 22.7413 14.5067C22.784 13.9627 22.56 13.9947 21.6533 14.6773C20.0533 15.872 17.76 16.7573 15.1467 17.184C13.344 17.4827 9.94133 17.4293 8.18133 17.0773C5.888 16.6187 4 15.84 2.41067 14.7093C1.94133 14.3573 1.48267 14.08 1.41867 14.08C1.33333 14.08 1.28 14.2187 1.28 14.4213Z" fill="#353945"/>
<path d="M1.28 18.4747C1.28 19.4133 2.4 20.896 3.78667 21.8133C5.19466 22.7307 7.53066 23.5093 9.73866 23.7867C11.232 23.9787 14.144 23.872 15.6053 23.584C18.9547 22.912 21.504 21.376 22.4533 19.4773C22.7413 18.9013 22.816 18.1333 22.5813 18.1333C22.496 18.1333 22.1547 18.3467 21.824 18.6133C19.488 20.416 15.9253 21.4613 12.0533 21.4507C8 21.44 4.512 20.4267 2.15467 18.56C1.472 18.0267 1.28 18.016 1.28 18.4747Z" fill="#353945"/>
</svg>
