<svg width="25" height="25" viewBox="0 0 25 25" fill="none" xmlns="http://www.w3.org/2000/svg">
<path d="M24.0827 10.8806L22.964 10.6832C22.6698 10.6329 22.4414 10.4083 22.364 10.118C22.1356 9.26641 21.7988 8.46124 21.3653 7.71414C21.2143 7.4548 21.2143 7.1335 21.3885 6.88962L22.0427 5.95673C22.2517 5.65479 22.2169 5.24446 21.9575 4.98512L20.4285 3.45995C20.1691 3.19673 19.7627 3.16188 19.4607 3.3748L18.5278 4.029C18.2801 4.19932 17.9588 4.20317 17.6995 4.05222C16.9562 3.61868 16.1472 3.28188 15.2994 3.05351C15.0091 2.97608 14.7846 2.74771 14.7304 2.45351L14.5369 1.3348C14.4711 0.970924 14.1575 0.707703 13.7898 0.707703H11.6259C11.2581 0.707703 10.9446 0.970924 10.8788 1.3348L10.6852 2.45351C10.631 2.74771 10.4065 2.97608 10.1162 3.05351C9.26846 3.28188 8.45944 3.61868 7.71232 4.04835C7.45297 4.19932 7.13555 4.19545 6.8878 4.02512L5.95491 3.37093C5.65298 3.16188 5.24651 3.19673 4.98716 3.45608L3.45813 4.98512C3.19878 5.24446 3.16393 5.65479 3.37298 5.95673L4.02717 6.88962C4.20137 7.1335 4.20137 7.4548 4.0504 7.71414C3.61685 8.46124 3.28008 9.26641 3.05168 10.118C2.97426 10.4083 2.74588 10.6329 2.45168 10.6832L1.33297 10.8806C0.972971 10.9425 0.705872 11.26 0.705872 11.6277V13.7916C0.705872 14.1593 0.972971 14.4729 1.33297 14.5348L2.45168 14.7322C2.74588 14.7825 2.97426 15.0071 3.05168 15.2974C3.28008 16.149 3.61685 16.9541 4.0504 17.7012C4.20137 17.9606 4.20137 18.2819 4.02717 18.5296L3.37298 19.4625C3.16393 19.7606 3.19878 20.1709 3.45813 20.4303L4.98716 21.9593C5.24651 22.2187 5.65298 22.2535 5.95491 22.0445L6.8878 21.3903C7.13555 21.22 7.45297 21.2161 7.71232 21.3671C8.45944 21.8006 9.26846 22.1335 10.1162 22.3619C10.4065 22.4393 10.631 22.6677 10.6852 22.9619L10.8788 24.0806C10.9446 24.4445 11.2581 24.7077 11.6259 24.7077H13.7898C14.1575 24.7077 14.4711 24.4445 14.5369 24.0806L14.7304 22.9619C14.7846 22.6677 15.0091 22.4393 15.2994 22.3619C16.1472 22.1335 16.9562 21.7967 17.6995 21.3632C17.9588 21.2122 18.2801 21.2161 18.5278 21.3903L19.4607 22.0406C19.7627 22.2535 20.1691 22.2187 20.4285 21.9593L21.9575 20.4303C22.2169 20.1709 22.2517 19.7606 22.0427 19.4625L21.3885 18.5296C21.2143 18.2819 21.2143 17.9606 21.3653 17.7012C21.7988 16.9541 22.1356 16.149 22.364 15.2974C22.4414 15.0071 22.6698 14.7825 22.964 14.7322L24.0827 14.5348C24.4427 14.4729 24.7098 14.1593 24.7098 13.7916V11.6277C24.7098 11.26 24.4427 10.9425 24.0827 10.8806ZM17.6878 16.4161C16.5614 14.8948 14.7459 13.9077 12.702 13.9077C10.6659 13.9077 8.85039 14.8948 7.72395 16.4161C6.95751 15.3864 6.49686 14.1012 6.49686 12.7116C6.49686 9.28188 9.27622 6.49868 12.702 6.49868C16.1356 6.49868 18.9227 9.28188 18.9227 12.7116C18.9227 14.1012 18.462 15.3864 17.6878 16.4161Z" fill="#FA2852"/>
<path d="M12.7066 8.31183C11.414 8.31183 10.3641 9.36165 10.3641 10.6561C10.3641 11.9435 11.4081 12.9986 12.7066 12.9986C14.0043 12.9986 15.0528 11.9442 15.0528 10.6561C15.0528 9.36165 14.0011 8.31183 12.7066 8.31183Z" fill="#FA2852"/>
</svg>
