<svg width="22" height="24" viewBox="0 0 22 24" fill="none" xmlns="http://www.w3.org/2000/svg">
<path d="M0.793032 13.7076C0.793032 19.0679 5.37183 23.4284 11.0001 23.4284C16.6281 23.4284 21.2068 19.0679 21.2068 13.7076C21.2068 11.9358 20.7006 10.2004 19.7437 8.69071L17.0805 10.2217C17.7449 11.27 18.096 12.4756 18.0963 13.7079C18.0963 17.4344 14.913 20.4658 11.0004 20.4658C7.08748 20.4658 3.90436 17.4344 3.90436 13.7079C3.90436 10.1164 6.86355 7.17895 10.5802 6.9703H12.1021L10.8206 10.0599C10.7776 10.1634 10.8124 10.2815 10.9058 10.3483C10.9991 10.4154 11.128 10.4151 11.2207 10.3471L17.5927 5.6809C17.6565 5.63393 17.6942 5.56207 17.6942 5.48461C17.6942 5.40759 17.6565 5.33514 17.5927 5.28832L11.2203 0.622441C11.1735 0.588113 11.1181 0.571289 11.062 0.571289C11.0068 0.571289 10.9521 0.587821 10.9054 0.620982C10.812 0.687791 10.7772 0.806093 10.8202 0.90971L12.1017 3.99896L10.9996 3.98661C10.6055 3.98661 9.2982 4.11294 9.08275 4.16122C4.3684 5.01841 0.793032 8.9718 0.793032 13.7076Z" fill="#353945"/>
</svg>
