<svg width="22" height="25" viewBox="0 0 22 25" fill="none" xmlns="http://www.w3.org/2000/svg">
<g clip-path="url(#clip0_278_1586)">
<path d="M17.9535 3.35354C17.7583 3.15828 17.4417 3.15828 17.2464 3.35354L14.0535 6.54646C13.7386 6.86145 13.9616 7.40002 14.4071 7.40002H16C16.2761 7.40002 16.5 7.62387 16.5 7.90002V15.1C16.5 16.3155 15.5155 17.3 14.3 17.3C13.0845 17.3 12.1 16.3155 12.1 15.1V7.40002C12.1 4.97452 10.1255 3.00004 7.69998 3.00004C5.27448 3.00004 3.3 4.97452 3.3 7.40002V14.6C3.3 14.8761 3.07614 15.1 2.8 15.1H1.20711C0.761656 15.1 0.538571 15.6386 0.853554 15.9535L4.04643 19.1464C4.24169 19.3417 4.55827 19.3417 4.75353 19.1464L7.94645 15.9535C8.26143 15.6386 8.03835 15.1 7.59289 15.1H6.00001C5.72387 15.1 5.50001 14.8761 5.50001 14.6V7.40002C5.50001 6.18453 6.4845 5.2 7.70003 5.2C8.91556 5.2 9.89999 6.18448 9.89999 7.40002V15.1C9.89999 17.5255 11.8745 19.5 14.3 19.5C16.7255 19.5 18.7 17.5255 18.7 15.1V7.90001C18.7 7.62387 18.9238 7.40002 19.2 7.40002H20.7929C21.2383 7.40002 21.4614 6.86145 21.1464 6.54646L17.9535 3.35354Z" fill="#FA2852" stroke="#FA2852" stroke-width="0.5"/>
</g>
<path d="M5.0625 23.368H15.625" stroke="#FA2852" stroke-width="3" stroke-linecap="round" stroke-linejoin="round" opacity="0.2"/>
<defs>
<clipPath id="clip0_278_1586">
<rect width="22" height="22" fill="white" transform="translate(0 0.25)"/>
</clipPath>
</defs>
</svg>
