<svg width="20" height="20" viewBox="0 0 20 20" fill="none" xmlns="http://www.w3.org/2000/svg">
<path d="M1.42859 16.7185C1.42859 17.74 2.25995 18.5714 3.28149 18.5714H16.7185C17.7401 18.5714 18.5714 17.74 18.5714 16.7185V10.5022H1.42859V16.7185ZM12.8674 14.8214H14.4605C14.6778 14.8214 14.8549 14.6443 14.8549 14.427V12.8339C14.8549 12.1695 15.8594 12.1693 15.8594 12.8339V14.427C15.8594 15.1984 15.2319 15.8259 14.4605 15.8259H12.8674C12.203 15.8259 12.2028 14.8214 12.8674 14.8214ZM4.14064 12.8339C4.14064 12.1695 5.14511 12.1693 5.14511 12.8339V14.427C5.14511 14.6443 5.32223 14.8214 5.53953 14.8214H7.13261C7.79703 14.8214 7.79723 15.8259 7.13261 15.8259H5.53953C4.7681 15.8259 4.14064 15.1984 4.14064 14.427V12.8339Z" fill="#353945"/>
<path d="M16.7185 1.42847C13.1889 1.42847 24.6221 1.42847 3.28149 1.42847C2.25995 1.42847 1.42859 2.25983 1.42859 3.28137V9.49766H18.5714V3.28137C18.5714 2.25983 17.7401 1.42847 16.7185 1.42847ZM7.13261 5.1115H5.53953C5.32223 5.1115 5.14511 5.28862 5.14511 5.50592V7.099C5.14511 7.76339 4.14064 7.76362 4.14064 7.099V5.50592C4.14064 4.73449 4.7681 4.10704 5.53953 4.10704H7.13261C7.79703 4.10704 7.79723 5.1115 7.13261 5.1115ZM15.8594 7.099C15.8594 7.76339 14.8549 7.76362 14.8549 7.099V5.50592C14.8549 5.28862 14.6778 5.1115 14.4605 5.1115H12.8674C12.203 5.1115 12.2028 4.10704 12.8674 4.10704H14.4605C15.2319 4.10704 15.8594 4.73449 15.8594 5.50592V7.099Z" fill="#353945"/>
</svg>
