<svg width="28" height="28" viewBox="0 0 28 28" fill="none" xmlns="http://www.w3.org/2000/svg">
<circle opacity="0.5" cx="14" cy="14" r="12" fill="#D1D7E7"/>
<g clip-path="url(#clip0_308_2415)">
<path d="M17.4893 9.78105C17.294 9.58578 16.9774 9.58578 16.7822 9.78105L15.7053 10.8579C15.3904 11.1729 15.6176 11.7114 16.063 11.7114C16.3392 11.7114 16.5648 11.9353 16.5648 12.2114V15.7083C16.5648 16.3392 16.0537 16.8503 15.4228 16.8503C14.7919 16.8503 14.2808 16.3393 14.2808 15.7083V11.7114C14.2808 10.4524 13.2559 9.42752 11.9969 9.42752C10.7379 9.42752 9.71295 10.4524 9.71295 11.7114V15.2083C9.71295 15.4845 9.48738 15.7083 9.21124 15.7083C8.76579 15.7083 8.53857 16.2469 8.85355 16.5619L9.93038 17.6387C10.1256 17.834 10.4422 17.834 10.6375 17.6387L11.7143 16.5619C12.0293 16.2469 11.8021 15.7083 11.3566 15.7083C11.0805 15.7083 10.8549 15.4845 10.8549 15.2083V11.7114C10.8549 11.0805 11.3659 10.5695 11.9969 10.5695C12.6279 10.5695 13.1389 11.0805 13.1389 11.7114V15.7083C13.1389 16.9673 14.1638 17.9922 15.4228 17.9922C16.6818 17.9922 17.7067 16.9673 17.7067 15.7083V12.2114C17.7067 11.9353 17.9323 11.7114 18.2084 11.7114C18.6539 11.7114 18.8811 11.1729 18.5661 10.8579L17.4893 9.78105Z" fill="#777E91" stroke="#777E91" stroke-width="0.2"/>
</g>
<path opacity="0.3" d="M10.6278 20H16.6278" stroke="#777E91" stroke-width="1.2" stroke-linecap="round" stroke-linejoin="round"/>
<defs>
<clipPath id="clip0_308_2415">
<rect width="11.4197" height="11.4197" fill="white" transform="translate(8 8)"/>
</clipPath>
</defs>
</svg>
