<svg width="26" height="26" viewBox="0 0 26 26" fill="none" xmlns="http://www.w3.org/2000/svg">
<g clip-path="url(#clip0_228_1865)">
<path d="M2.5 23.4998H12.0454V13.9543H2.5V23.4998ZM4.40894 15.8636H10.1363V21.5761H4.40894V15.8636Z" fill="#353945"/>
<path d="M8.22716 17.7725H6.31812V19.6818H8.22716V17.7725Z" fill="#353945"/>
<path d="M19.6818 21.5909H17.7723V23.5H19.6818V21.5909Z" fill="#353945"/>
<path d="M23.5 21.5909H21.5905V23.5H23.5V21.5909Z" fill="#353945"/>
<path d="M21.5907 15.8636H19.6818V13.9543H13.9543V23.4998H15.8635V17.7725H17.7723V19.6818H23.4998V13.9543H21.5907V15.8636Z" fill="#353945"/>
<path d="M2.5 12.0456H12.0454V2.5H2.5V12.0456ZM4.40894 4.40894H10.1363V10.1363H4.40894V4.40894Z" fill="#353945"/>
<path d="M8.22716 6.31815H6.31812V8.22735H8.22716V6.31815Z" fill="#353945"/>
<path d="M13.9543 2.5V12.0456H23.5V2.5H13.9543ZM21.5907 10.1363H15.8635V4.40894H21.5907V10.1363Z" fill="#353945"/>
<path d="M19.6818 6.31815H17.7723V8.22735H19.6818V6.31815Z" fill="#353945"/>
</g>
<defs>
<clipPath id="clip0_228_1865">
<rect width="21" height="21" fill="white" transform="translate(2.5 2.5)"/>
</clipPath>
</defs>
</svg>
