<svg width="21" height="22" viewBox="0 0 21 22" fill="none" xmlns="http://www.w3.org/2000/svg">
<path d="M17.916 12.0395L17.9055 12.0605C17.9475 11.714 17.9895 11.357 17.9895 11C17.9895 10.643 17.958 10.307 17.916 9.9605L17.9265 9.9815L20.4885 7.9655L17.937 3.5345L14.9235 4.7525L14.934 4.763C14.388 4.343 13.7895 3.986 13.1385 3.713H13.149L12.666 0.5H7.55248L7.09048 3.7235H7.10098C6.44998 3.9965 5.85148 4.3535 5.30548 4.7735L5.31598 4.763L2.29198 3.5345L-0.27002 7.9655L2.29198 9.9815L2.30248 9.9605C2.26048 10.307 2.22898 10.643 2.22898 11C2.22898 11.357 2.26048 11.714 2.31298 12.0605L2.30248 12.0395L0.0974806 13.772L-0.249019 14.045L2.30248 18.455L5.32648 17.2475L5.30548 17.2055C5.86198 17.636 6.46048 17.993 7.12198 18.266H7.09048L7.56298 21.5H12.6555C12.6555 21.5 12.687 21.311 12.7185 21.059L13.1175 18.2765H13.107C13.758 18.0035 14.367 17.6465 14.9235 17.216L14.9025 17.258L17.9265 18.4655L20.478 14.0555C20.478 14.0555 20.331 13.9295 20.1315 13.7825L17.916 12.0395ZM10.104 14.675C8.07748 14.675 6.42898 13.0265 6.42898 11C6.42898 8.9735 8.07748 7.325 10.104 7.325C12.1305 7.325 13.779 8.9735 13.779 11C13.779 13.0265 12.1305 14.675 10.104 14.675Z" fill="#353945"/>
</svg>
