<svg version="1.1" width="18px" height="18px" viewBox="0 0 16 16" xmlns="http://www.w3.org/2000/svg" xmlns:xlink="http://www.w3.org/1999/xlink"><g><path d="M13.5,0h-10c-0.276367,0 -0.5,0.223633 -0.5,0.5v2.5h-2.5c-0.276367,0 -0.5,0.223633 -0.5,0.5v10c0,0.276367 0.223633,0.5 0.5,0.5h10c0.276367,0 0.5,-0.223633 0.5,-0.5v-2.5h2.5c0.276367,0 0.5,-0.223633 0.5,-0.5v-10c0,-0.276367 -0.223633,-0.5 -0.5,-0.5Zm-3.5,13h-9v-9h9v9Zm3,-3h-2v-6.5c0,-0.276367 -0.223633,-0.5 -0.5,-0.5h-6.5v-2h9v9Z" transform="translate(1, 1)"></path></g></svg>
