<svg width="16" height="16" viewBox="0 0 16 16" fill="none" xmlns="http://www.w3.org/2000/svg">
<path fill-rule="evenodd" clip-rule="evenodd" d="M2.12046 9.3332C1.01798 9.33633 0.306302 10.5923 0.9855 11.5438C1.95818 12.9064 3.72201 14 6.66669 14C11.2301 14 14.8932 10.2811 14.3804 5.8874L15.1316 4.38487C15.6526 3.34285 14.7473 2.15748 13.6049 2.38596L12.6124 2.58446C12.3492 2.44562 12.0769 2.34085 11.8442 2.26494C11.3906 2.11701 10.8416 2 10.3334 2C9.42049 2 8.63263 2.23421 8.00649 2.70395C7.38749 3.16843 7.03883 3.77883 6.84749 4.33937C6.75929 4.59774 6.70056 4.85689 6.66287 5.10562C6.30869 4.99415 5.94755 4.84417 5.59399 4.66103C4.79186 4.24555 4.14323 3.71881 3.77733 3.25701C3.16344 2.4822 1.86248 2.53965 1.40596 3.54681C0.762533 4.96631 0.939033 6.64897 1.51739 8.0086C1.71125 8.46427 1.96341 8.91473 2.27149 9.3322C2.21875 9.3328 2.16829 9.33307 2.12046 9.3332ZM6.66663 12.6667C4.09107 12.6667 2.75929 11.7338 2.07065 10.7691C2.03971 10.7258 2.07091 10.6667 2.12416 10.6665C2.82472 10.6645 4.26272 10.6314 5.21112 10.0763C5.26017 10.0476 5.24937 9.97527 5.19551 9.9572C2.98473 9.21387 1.72804 6.06573 2.62029 4.09727C2.64075 4.05213 2.70142 4.04618 2.7322 4.08503C3.75145 5.37145 5.97998 6.63147 7.91889 6.66594C7.96096 6.66667 7.99276 6.62847 7.98636 6.58689C7.90823 6.08035 7.60989 3.33333 10.3333 3.33333C10.9836 3.33333 11.9512 3.65055 12.3076 3.97553C12.3241 3.99055 12.3464 3.99737 12.3683 3.993L13.8663 3.6934C13.9207 3.68252 13.9638 3.73897 13.939 3.78859L13.0099 5.64679C13.0034 5.65969 13.0014 5.6745 13.0039 5.68871C13.6546 9.34667 10.6586 12.6667 6.66663 12.6667Z" fill="#353945"/>
</svg>
