<svg width="20" height="20" viewBox="0 0 20 20" fill="none" xmlns="http://www.w3.org/2000/svg">
<rect x="19.5" y="19.5" width="19" height="19" rx="9.5" transform="rotate(180 19.5 19.5)" stroke="#FA2852"/>
<g clip-path="url(#clip0_308_3884)">
<path d="M9.73963 5.40187C9.73952 5.40199 9.73939 5.40208 9.73928 5.40221L7.82752 7.32324C7.6843 7.46715 7.68483 7.69993 7.82877 7.84318C7.97268 7.98642 8.20546 7.98586 8.34869 7.84195L9.63222 6.55217L9.63222 14.3382C9.63222 14.5412 9.79682 14.7058 9.99987 14.7058C10.2029 14.7058 10.3675 14.5412 10.3675 14.3382L10.3675 6.55219L11.651 7.84193C11.7943 7.98585 12.0271 7.9864 12.171 7.84316C12.3149 7.69991 12.3154 7.46711 12.1722 7.32322L10.2605 5.40219C10.2603 5.40208 10.2602 5.40198 10.2601 5.40186C10.1164 5.25787 9.88287 5.25833 9.73963 5.40187Z" fill="#FA2852"/>
</g>
<defs>
<clipPath id="clip0_308_3884">
<rect width="9.41177" height="9.41176" fill="white" transform="translate(5.29395 14.7058) rotate(-90)"/>
</clipPath>
</defs>
</svg>
